<svg id="Layer_1" data-name="Layer 1" xmlns="http://www.w3.org/2000/svg" viewBox="0 0 276.96 105.06"><defs><style>.cls-1{fill:#fff;}</style></defs><path class="cls-1" d="M257,288.76a.89.89,0,0,1-.24-.64V277.78a.8.8,0,0,1,.87-.85h6.08c.55,0,.82.24.82.72s-.27.71-.82.71h-5.22v3.76h4.88c.55,0,.82.24.82.71s-.27.72-.82.72h-4.88v4.57a.88.88,0,0,1-.23.65,1,1,0,0,1-1.26,0Z" transform="translate(-225.14 -187.04)"/><path class="cls-1" d="M276.36,280.67a.85.85,0,0,1,.23.62v6.91a.74.74,0,0,1-.24.58.88.88,0,0,1-.63.22.81.81,0,0,1-.58-.21.78.78,0,0,1-.22-.57v-.64a2.67,2.67,0,0,1-1.08,1.08,3.17,3.17,0,0,1-1.54.38q-3,0-3-3.33v-4.42a.81.81,0,0,1,.23-.62,1,1,0,0,1,1.26,0,.85.85,0,0,1,.23.62v4.4a2.26,2.26,0,0,0,.4,1.48,1.57,1.57,0,0,0,1.26.47,2.09,2.09,0,0,0,1.61-.64,2.42,2.42,0,0,0,.6-1.72v-4a.81.81,0,0,1,.24-.61,1,1,0,0,1,1.25,0Z" transform="translate(-225.14 -187.04)"/><path class="cls-1" d="M287.55,281.15a.77.77,0,0,1-.18.56,1,1,0,0,1-.65.22l-.51.05a2.23,2.23,0,0,0-1.59.75,2.39,2.39,0,0,0-.52,1.56v3.9a.76.76,0,0,1-.24.61.86.86,0,0,1-.61.2.92.92,0,0,1-.62-.2.76.76,0,0,1-.24-.61v-6.92a.79.79,0,0,1,.24-.61.93.93,0,0,1,.62-.21.8.8,0,0,1,.57.21.79.79,0,0,1,.23.59v.82a2.52,2.52,0,0,1,1-1.14,3.35,3.35,0,0,1,1.46-.46l.24,0C287.28,280.42,287.55,280.65,287.55,281.15Z" transform="translate(-225.14 -187.04)"/><path class="cls-1" d="M299.45,283.77v4.42a.75.75,0,0,1-.23.6.89.89,0,0,1-.63.21.84.84,0,0,1-.62-.22.74.74,0,0,1-.23-.59v-4.34a2.32,2.32,0,0,0-.42-1.54,1.61,1.61,0,0,0-1.3-.5,2.24,2.24,0,0,0-1.67.65,2.37,2.37,0,0,0-.63,1.73v4a.74.74,0,0,1-.23.59,1,1,0,0,1-1.24,0,.75.75,0,0,1-.24-.59v-6.92a.78.78,0,0,1,.24-.59.9.9,0,0,1,.62-.23.85.85,0,0,1,.6.22.78.78,0,0,1,.22.58v.7a2.72,2.72,0,0,1,1.14-1.14,3.46,3.46,0,0,1,1.65-.39Q299.45,280.42,299.45,283.77Z" transform="translate(-225.14 -187.04)"/><path class="cls-1" d="M305.28,278.51a.93.93,0,0,1-.29-.71.9.9,0,0,1,.29-.7,1.13,1.13,0,0,1,.79-.27,1.11,1.11,0,0,1,.77.27.88.88,0,0,1,.3.7.93.93,0,0,1-.29.71,1.24,1.24,0,0,1-1.57,0Zm.17,10.29a.74.74,0,0,1-.25-.61v-6.9a.78.78,0,0,1,.25-.63,1,1,0,0,1,1.23,0,.81.81,0,0,1,.24.63v6.9a.76.76,0,0,1-.24.61.9.9,0,0,1-.61.2A.91.91,0,0,1,305.45,288.8Z" transform="translate(-225.14 -187.04)"/><path class="cls-1" d="M317.55,287.89a.61.61,0,0,1,.16.45.6.6,0,0,1-.26.52,1.21,1.21,0,0,1-.78.14l-.46,0a3,3,0,0,1-2-.84,3.09,3.09,0,0,1-.68-2.19v-4h-1q-.75,0-.75-.66a.6.6,0,0,1,.2-.49.78.78,0,0,1,.55-.18h1v-1.75a.78.78,0,0,1,.23-.61.84.84,0,0,1,.62-.22.88.88,0,0,1,.63.22.78.78,0,0,1,.23.61v1.75h1.69a.78.78,0,0,1,.55.18.63.63,0,0,1,.2.49.62.62,0,0,1-.2.49.82.82,0,0,1-.55.17h-1.69v4.11a1.75,1.75,0,0,0,.34,1.18,1.4,1.4,0,0,0,1,.42l.47,0A.84.84,0,0,1,317.55,287.89Z" transform="translate(-225.14 -187.04)"/><path class="cls-1" d="M329.4,280.67a.85.85,0,0,1,.23.62v6.91a.74.74,0,0,1-.24.58.88.88,0,0,1-.63.22.81.81,0,0,1-.58-.21.78.78,0,0,1-.22-.57v-.64a2.67,2.67,0,0,1-1.08,1.08,3.17,3.17,0,0,1-1.54.38q-3,0-3-3.33v-4.42a.81.81,0,0,1,.23-.62.89.89,0,0,1,.63-.22.91.91,0,0,1,.63.22.84.84,0,0,1,.22.62v4.4a2.25,2.25,0,0,0,.41,1.48,1.55,1.55,0,0,0,1.26.47,2.11,2.11,0,0,0,1.61-.64,2.42,2.42,0,0,0,.6-1.72v-4a.81.81,0,0,1,.24-.61,1,1,0,0,1,1.25,0Z" transform="translate(-225.14 -187.04)"/><path class="cls-1" d="M340.59,281.15a.77.77,0,0,1-.18.56,1,1,0,0,1-.65.22l-.51.05a2.23,2.23,0,0,0-1.59.75,2.39,2.39,0,0,0-.52,1.56v3.9a.76.76,0,0,1-.24.61.88.88,0,0,1-.61.2.91.91,0,0,1-.62-.2.77.77,0,0,1-.25-.61v-6.92a.8.8,0,0,1,.25-.61.91.91,0,0,1,.62-.21.8.8,0,0,1,.57.21.79.79,0,0,1,.23.59v.82a2.52,2.52,0,0,1,1-1.14,3.35,3.35,0,0,1,1.46-.46l.24,0C340.32,280.42,340.59,280.65,340.59,281.15Z" transform="translate(-225.14 -187.04)"/><path class="cls-1" d="M351.76,287a.76.76,0,0,1,.15.48,1,1,0,0,1-.61.83,5,5,0,0,1-1.3.53,5,5,0,0,1-1.35.19,4.17,4.17,0,0,1-3.11-1.15,4.26,4.26,0,0,1-1.14-3.14,5,5,0,0,1,.5-2.26,3.86,3.86,0,0,1,1.41-1.53,4,4,0,0,1,2.07-.54,3.37,3.37,0,0,1,2.63,1.07,4.12,4.12,0,0,1,1,2.89c0,.45-.2.68-.61.68h-5.25c.11,1.76,1,2.64,2.53,2.64a3.24,3.24,0,0,0,1.09-.17,10.13,10.13,0,0,0,1-.45l.28-.14a1,1,0,0,1,.38-.11A.48.48,0,0,1,351.76,287Zm-4.93-4.7a2.9,2.9,0,0,0-.71,1.76h4.38a2.83,2.83,0,0,0-.58-1.77,1.87,1.87,0,0,0-1.51-.62A2.07,2.07,0,0,0,346.83,282.31Z" transform="translate(-225.14 -187.04)"/><path class="cls-1" d="M375.27,288.34a.66.66,0,0,1-.22.5.73.73,0,0,1-.51.21.7.7,0,0,1-.51-.22l-1.49-1.51a5.71,5.71,0,0,1-1.77,1.28,5.32,5.32,0,0,1-4.12,0,3.14,3.14,0,0,1-1.4-1.12,2.89,2.89,0,0,1-.5-1.67,3.14,3.14,0,0,1,.66-2,6.59,6.59,0,0,1,2-1.65,7,7,0,0,1-1-1.39,2.85,2.85,0,0,1-.33-1.33,2.42,2.42,0,0,1,.86-2,3.33,3.33,0,0,1,2.23-.73,3,3,0,0,1,2.06.67,2.28,2.28,0,0,1,.76,1.82,2.63,2.63,0,0,1-.55,1.66,6.32,6.32,0,0,1-1.76,1.45l2.67,2.71a7.54,7.54,0,0,0,.66-2.71.72.72,0,0,1,.25-.55.76.76,0,0,1,.52-.19.69.69,0,0,1,.51.21.66.66,0,0,1,.18.59,8.31,8.31,0,0,1-1.08,3.68l1.66,1.69A.67.67,0,0,1,375.27,288.34Zm-5-1a3.82,3.82,0,0,0,1.29-1l-3.18-3.18a5,5,0,0,0-1.51,1.24,2.2,2.2,0,0,0-.45,1.36,1.69,1.69,0,0,0,.64,1.41,2.59,2.59,0,0,0,1.71.52A3.44,3.44,0,0,0,370.28,287.35Zm-2.19-8.9a1.42,1.42,0,0,0-.42,1.07,1.8,1.8,0,0,0,.26.91,7,7,0,0,0,.83,1.06,6.31,6.31,0,0,0,1.39-1.08,1.57,1.57,0,0,0,.4-1,1.29,1.29,0,0,0-.38-1,1.36,1.36,0,0,0-1-.36A1.54,1.54,0,0,0,368.09,278.45Z" transform="translate(-225.14 -187.04)"/><path class="cls-1" d="M396.72,283.79a3,3,0,0,1,.57,1.87,2.91,2.91,0,0,1-1.07,2.4,4.58,4.58,0,0,1-3,.86h-4.34a.85.85,0,0,1-.63-.23.81.81,0,0,1-.23-.62V277.78a.82.82,0,0,1,.23-.62.85.85,0,0,1,.63-.23h4.15a4.57,4.57,0,0,1,2.9.83,2.76,2.76,0,0,1,1,2.3,2.7,2.7,0,0,1-.51,1.65,2.93,2.93,0,0,1-1.4,1A2.93,2.93,0,0,1,396.72,283.79Zm-7-1.67h3c1.68,0,2.52-.64,2.52-1.91a1.64,1.64,0,0,0-.63-1.41,3.21,3.21,0,0,0-1.89-.46h-3ZM395,287a1.75,1.75,0,0,0,.61-1.48A1.83,1.83,0,0,0,395,284a3,3,0,0,0-1.91-.5h-3.3v4h3.3A3.12,3.12,0,0,0,395,287Z" transform="translate(-225.14 -187.04)"/><path class="cls-1" d="M409.66,287a.71.71,0,0,1,.16.48,1,1,0,0,1-.62.83,5,5,0,0,1-1.3.53,5,5,0,0,1-1.35.19,4.17,4.17,0,0,1-3.11-1.15,4.26,4.26,0,0,1-1.14-3.14,5,5,0,0,1,.5-2.26,3.81,3.81,0,0,1,1.42-1.53,3.93,3.93,0,0,1,2.06-.54,3.41,3.41,0,0,1,2.64,1.07,4.17,4.17,0,0,1,1,2.89c0,.45-.2.68-.61.68H404c.11,1.76,1,2.64,2.53,2.64a3.24,3.24,0,0,0,1.09-.17,9.11,9.11,0,0,0,1-.45l.28-.14a1,1,0,0,1,.38-.11A.48.48,0,0,1,409.66,287Zm-4.93-4.7a3,3,0,0,0-.71,1.76h4.39a2.83,2.83,0,0,0-.59-1.77,1.87,1.87,0,0,0-1.51-.62A2.09,2.09,0,0,0,404.73,282.31Z" transform="translate(-225.14 -187.04)"/><path class="cls-1" d="M422.58,277.07a.78.78,0,0,1,.24.59v10.51a.81.81,0,0,1-.23.61,1,1,0,0,1-1.24,0,.81.81,0,0,1-.23-.61v-.68a2.63,2.63,0,0,1-1.09,1.15,3.25,3.25,0,0,1-1.65.4,3.39,3.39,0,0,1-1.91-.55,3.58,3.58,0,0,1-1.31-1.53,5.67,5.67,0,0,1,0-4.52,3.58,3.58,0,0,1,1.3-1.49,3.47,3.47,0,0,1,1.92-.53,3.22,3.22,0,0,1,1.64.4A2.62,2.62,0,0,1,421.1,282v-4.32a.75.75,0,0,1,.23-.57.9.9,0,0,1,.62-.21A.88.88,0,0,1,422.58,277.07Zm-2.07,9.84a3.38,3.38,0,0,0,.61-2.17,3.47,3.47,0,0,0-.6-2.18,2.08,2.08,0,0,0-1.73-.76,2.12,2.12,0,0,0-1.74.75,3.34,3.34,0,0,0-.62,2.15,3.44,3.44,0,0,0,.63,2.19,2.12,2.12,0,0,0,1.73.79A2.08,2.08,0,0,0,420.51,286.91Z" transform="translate(-225.14 -187.04)"/><path class="cls-1" d="M436,277.07a.78.78,0,0,1,.24.59v10.51a.81.81,0,0,1-.23.61,1,1,0,0,1-1.24,0,.77.77,0,0,1-.23-.61v-.68a2.63,2.63,0,0,1-1.09,1.15,3.3,3.3,0,0,1-1.65.4,3.39,3.39,0,0,1-1.91-.55,3.58,3.58,0,0,1-1.31-1.53,5.67,5.67,0,0,1,0-4.52,3.51,3.51,0,0,1,1.3-1.49,3.47,3.47,0,0,1,1.92-.53,3.24,3.24,0,0,1,1.64.4,2.62,2.62,0,0,1,1.08,1.13v-4.32a.75.75,0,0,1,.23-.57,1,1,0,0,1,1.25,0ZM434,286.91a4.18,4.18,0,0,0,0-4.35,2,2,0,0,0-1.72-.76,2.12,2.12,0,0,0-1.74.75,3.28,3.28,0,0,0-.62,2.15,3.44,3.44,0,0,0,.63,2.19,2.3,2.3,0,0,0,3.45,0Z" transform="translate(-225.14 -187.04)"/><path class="cls-1" d="M442.15,278.51a.93.93,0,0,1-.29-.71.9.9,0,0,1,.29-.7,1.25,1.25,0,0,1,1.55,0,.88.88,0,0,1,.3.7.89.89,0,0,1-.29.71,1.23,1.23,0,0,1-1.56,0Zm.16,10.29a.77.77,0,0,1-.25-.61v-6.9a.81.81,0,0,1,.25-.63.91.91,0,0,1,.62-.21.89.89,0,0,1,.61.21.81.81,0,0,1,.24.63v6.9a.76.76,0,0,1-.24.61.88.88,0,0,1-.61.2A.91.91,0,0,1,442.31,288.8Z" transform="translate(-225.14 -187.04)"/><path class="cls-1" d="M457,283.77v4.42a.75.75,0,0,1-.23.6.89.89,0,0,1-.63.21.84.84,0,0,1-.62-.22.74.74,0,0,1-.23-.59v-4.34a2.32,2.32,0,0,0-.42-1.54,1.61,1.61,0,0,0-1.3-.5,2.24,2.24,0,0,0-1.67.65,2.37,2.37,0,0,0-.62,1.73v4a.78.78,0,0,1-.23.59.86.86,0,0,1-.63.22.84.84,0,0,1-.62-.22.75.75,0,0,1-.24-.59v-6.92a.78.78,0,0,1,.24-.59.91.91,0,0,1,.62-.23.85.85,0,0,1,.6.22.78.78,0,0,1,.22.58v.7a2.72,2.72,0,0,1,1.14-1.14,3.46,3.46,0,0,1,1.65-.39Q457,280.42,457,283.77Z" transform="translate(-225.14 -187.04)"/><path class="cls-1" d="M470.26,280.68a.84.84,0,0,1,.23.61v7a3.81,3.81,0,0,1-1,2.87,4.15,4.15,0,0,1-3,1,6.08,6.08,0,0,1-3.06-.7,1,1,0,0,1-.63-.85.68.68,0,0,1,.17-.47.48.48,0,0,1,.4-.19,1.7,1.7,0,0,1,.69.25,7,7,0,0,0,1.14.45,4.24,4.24,0,0,0,1.26.16,2.08,2.08,0,0,0,2.35-2.36v-1.31a2.68,2.68,0,0,1-1.09,1.17,3.37,3.37,0,0,1-1.7.41,3.7,3.7,0,0,1-1.94-.51,3.41,3.41,0,0,1-1.32-1.44,4.77,4.77,0,0,1-.47-2.16,4.65,4.65,0,0,1,.48-2.16,3.53,3.53,0,0,1,3.25-2,3.26,3.26,0,0,1,1.67.41,2.66,2.66,0,0,1,1.1,1.15v-.71a.78.78,0,0,1,.23-.6.88.88,0,0,1,.62-.22A.85.85,0,0,1,470.26,280.68Zm-2.1,5.89a3,3,0,0,0,.63-2,3,3,0,0,0-.62-2,2.14,2.14,0,0,0-1.74-.74,2.19,2.19,0,0,0-1.76.73,3.51,3.51,0,0,0,0,4,2.22,2.22,0,0,0,1.76.73A2.16,2.16,0,0,0,468.16,286.57Z" transform="translate(-225.14 -187.04)"/><path class="cls-1" d="M269.3,188.16a3.34,3.34,0,0,1,.81,2.35v48.58a3.34,3.34,0,0,1-.81,2.35,2.93,2.93,0,0,1-2.27.89,3,3,0,0,1-2.31-.89,3.23,3.23,0,0,1-.85-2.35v-22H231.38v22a3.27,3.27,0,0,1-.85,2.35,3,3,0,0,1-2.31.89,2.92,2.92,0,0,1-2.27-.89,3.34,3.34,0,0,1-.81-2.35V190.51a3.34,3.34,0,0,1,.81-2.35,2.92,2.92,0,0,1,2.27-.89,3,3,0,0,1,2.31.89,3.27,3.27,0,0,1,.85,2.35v21.17h32.49V190.51a3.23,3.23,0,0,1,.85-2.35,3,3,0,0,1,2.31-.89,2.93,2.93,0,0,1,2.27.89" transform="translate(-225.14 -187.04)"/><path class="cls-1" d="M305.18,241.09a2.94,2.94,0,0,1-.89-2.23V190.74a3,3,0,0,1,.89-2.24,3.27,3.27,0,0,1,2.35-.84h15q13,0,20.14,7t7.12,20.06q0,13-7.16,20.1t-20.1,7.08h-15a3.23,3.23,0,0,1-2.35-.85m38.08-26.33q0-21.72-21.1-21.71H310.61v43.5h11.55q21.09,0,21.1-21.79" transform="translate(-225.14 -187.04)"/><path class="cls-1" d="M387.49,240.82a22.61,22.61,0,0,1-8.43-4.65,3.54,3.54,0,0,1-1.15-2.7,3,3,0,0,1,.61-1.89,1.82,1.82,0,0,1,1.46-.8,3.75,3.75,0,0,1,2.16.84,26,26,0,0,0,16.33,5.55q6.61,0,10.16-2.54a8.39,8.39,0,0,0,3.54-7.24,5.79,5.79,0,0,0-1.69-4.35,12.19,12.19,0,0,0-4.47-2.66,67,67,0,0,0-7.47-2.08,71.51,71.51,0,0,1-10.35-3.08,16.16,16.16,0,0,1-6.55-4.62,11.85,11.85,0,0,1-2.5-7.85,13.93,13.93,0,0,1,2.5-8.2,16.17,16.17,0,0,1,7-5.55,25.64,25.64,0,0,1,10.28-2,29.58,29.58,0,0,1,10,1.66,21.08,21.08,0,0,1,7.82,4.73,3.76,3.76,0,0,1,1.23,2.7,3,3,0,0,1-.61,1.88,1.81,1.81,0,0,1-1.47.81,4.68,4.68,0,0,1-2.23-.85,26.08,26.08,0,0,0-7-4.31,21.84,21.84,0,0,0-7.77-1.23q-6.39,0-9.94,2.66a8.75,8.75,0,0,0-3.54,7.43,6.82,6.82,0,0,0,3.12,6.12,31.61,31.61,0,0,0,9.59,3.58q7,1.69,11,3.12a16.46,16.46,0,0,1,6.66,4.27,10.73,10.73,0,0,1,2.65,7.62,13.31,13.31,0,0,1-2.5,8,16.22,16.22,0,0,1-7,5.39,26.35,26.35,0,0,1-10.4,1.93,35.06,35.06,0,0,1-11.05-1.74" transform="translate(-225.14 -187.04)"/><path class="cls-1" d="M501.33,188.16a3.46,3.46,0,0,1,.77,2.35v48.58a3.34,3.34,0,0,1-.81,2.35,2.93,2.93,0,0,1-2.27.89,3.2,3.2,0,0,1-2.54-1.31l-32-42.74v40.81a3.34,3.34,0,0,1-.81,2.35,2.83,2.83,0,0,1-2.19.89,2.7,2.7,0,0,1-2.16-.89,3.46,3.46,0,0,1-.77-2.35V190.51a3.34,3.34,0,0,1,.81-2.35,2.93,2.93,0,0,1,2.27-.89,3.29,3.29,0,0,1,2.62,1.31l31.88,42.74V190.51a3.34,3.34,0,0,1,.81-2.35,2.81,2.81,0,0,1,2.19-.89,2.72,2.72,0,0,1,2.16.89" transform="translate(-225.14 -187.04)"/></svg>